<svg xmlns="http://www.w3.org/2000/svg" viewBox="0 0 1004.88 1004.88"><defs><style>.cls-1{opacity:0;}</style></defs><title>text-rotation</title><g id="Layer_2" data-name="Layer 2"><g id="Layer_1-2" data-name="Layer 1"><g id="rotating_text"><path d="M519.39,33.38l-6.63-11.49,1.58,0,6.57,11.26v.24ZM503.6,7.47l8.21.16a10.82,10.82,0,0,1,4.43,1,6.78,6.78,0,0,1,2.94,2.57,7.3,7.3,0,0,1,1,4.09,7.06,7.06,0,0,1-.86,3.32A7.33,7.33,0,0,1,517.14,21a7.53,7.53,0,0,1-3.08,1.2l-.62.22L504,22.23v-1.3l8.28.16a6.62,6.62,0,0,0,3.55-.79A5.5,5.5,0,0,0,518,18.11a6.34,6.34,0,0,0,.77-2.9,6,6,0,0,0-.79-3.29,5.62,5.62,0,0,0-2.4-2.16,8.86,8.86,0,0,0-3.78-.83L505,8.8l-.48,24.29-1.42,0Z"/><path d="M538.46,34.87a8.06,8.06,0,0,1-3.26-.93,8.39,8.39,0,0,1-2.52-2.15,9.52,9.52,0,0,1-1.56-3.12,10.77,10.77,0,0,1-.34-3.81l.06-.77a11,11,0,0,1,.92-3.81,9.44,9.44,0,0,1,2-2.88,7.67,7.67,0,0,1,2.69-1.77,7.19,7.19,0,0,1,3.16-.45,7,7,0,0,1,3,.84,6.88,6.88,0,0,1,2.19,1.89A7.73,7.73,0,0,1,546,20.66a10.44,10.44,0,0,1,.25,3.4l-.09,1.17-14.46-1.09.1-1.28,13.08,1v-.23a7.92,7.92,0,0,0-.48-3.37,6,6,0,0,0-1.83-2.6,5.26,5.26,0,0,0-3.1-1.19,5.82,5.82,0,0,0-2.77.42,6.49,6.49,0,0,0-2.22,1.6A8,8,0,0,0,533,21a10.71,10.71,0,0,0-.72,3.2l-.06.77a9.38,9.38,0,0,0,.28,3.2,8.57,8.57,0,0,0,1.28,2.71,7.14,7.14,0,0,0,2.09,1.9,6.28,6.28,0,0,0,2.76.84,7.51,7.51,0,0,0,3.06-.35,6.24,6.24,0,0,0,2.64-1.84l.86.75a7.5,7.5,0,0,1-1.65,1.52,7,7,0,0,1-2.2,1A8.88,8.88,0,0,1,538.46,34.87Z"/><path d="M568.71,26.91l-.12,1.21-4.6-.59a13.15,13.15,0,0,0-3.17-.07,7.64,7.64,0,0,0-2.46.64,4.42,4.42,0,0,0-1.65,1.26,3.79,3.79,0,0,0-.42,3.88,4.09,4.09,0,0,0,1.43,1.65,5.45,5.45,0,0,0,2.36.84,8.27,8.27,0,0,0,3.41-.22A7.32,7.32,0,0,0,566.18,34,7.14,7.14,0,0,0,568,31.62l.48,1.08a7.08,7.08,0,0,1-1.16,1.75A7.5,7.5,0,0,1,565.44,36a8.85,8.85,0,0,1-2.5,1,9.41,9.41,0,0,1-3.11.07,7,7,0,0,1-3.06-1.06A5.25,5.25,0,0,1,555,33.83a5.16,5.16,0,0,1-.38-2.8,4.88,4.88,0,0,1,.9-2.31,5.46,5.46,0,0,1,1.94-1.63,8.36,8.36,0,0,1,2.89-.83,14.4,14.4,0,0,1,3.7,0Zm-1.38,7.18,1.25-9.75a5.13,5.13,0,0,0-.3-2.63,4,4,0,0,0-1.63-1.85,6.8,6.8,0,0,0-2.87-1,7,7,0,0,0-3,.21,4.9,4.9,0,0,0-2.2,1.27,3.59,3.59,0,0,0-1,2.09l-1.39-.2a4.55,4.55,0,0,1,.77-2,5.67,5.67,0,0,1,1.69-1.57,7.45,7.45,0,0,1,2.41-1,8.84,8.84,0,0,1,2.92-.09,8.59,8.59,0,0,1,3.41,1.13,5.26,5.26,0,0,1,2.13,2.31,6.14,6.14,0,0,1,.43,3.46l-1.2,9.31a17.53,17.53,0,0,0-.12,2.06,7.62,7.62,0,0,0,.17,1.7l0,.18-1.52-.2a9.13,9.13,0,0,1-.08-1.65A18,18,0,0,1,567.33,34.09Z"/><path d="M586.49,39.77a6.82,6.82,0,0,0,2.74,0,5.11,5.11,0,0,0,2.38-1.19A4.8,4.8,0,0,0,593.06,36l1.35.24a6,6,0,0,1-1.66,3,6.68,6.68,0,0,1-2.93,1.63,8.4,8.4,0,0,1-6.77-1.17,6.86,6.86,0,0,1-2.08-2.4,9.09,9.09,0,0,1-1-3.23,13.21,13.21,0,0,1,.18-3.83l.13-.72a13.11,13.11,0,0,1,1.17-3.63,9.26,9.26,0,0,1,2-2.7,6.92,6.92,0,0,1,2.77-1.52,8,8,0,0,1,3.45-.09A7.86,7.86,0,0,1,593.07,23a6.42,6.42,0,0,1,2.14,2.69,6.81,6.81,0,0,1,.42,3.76l-1.35-.25a5.66,5.66,0,0,0-.35-3.06A5.2,5.2,0,0,0,592.18,24a6.38,6.38,0,0,0-2.66-1.12,6.19,6.19,0,0,0-3,.12,5.62,5.62,0,0,0-2.31,1.4,7.66,7.66,0,0,0-1.6,2.37,12.77,12.77,0,0,0-.93,3l-.13.73a13.44,13.44,0,0,0-.21,3.19A7.94,7.94,0,0,0,582,36.5a5.8,5.8,0,0,0,1.67,2.11A6.42,6.42,0,0,0,586.49,39.77Z"/><path d="M609.6,20.86l1.37.31-4.3,19a5.81,5.81,0,0,0-.15,2.34,2.15,2.15,0,0,0,.75,1.25,3.43,3.43,0,0,0,1.26.56,7,7,0,0,0,.92.15l.88.08-.15,1.22a4.16,4.16,0,0,1-1,0,8.31,8.31,0,0,1-1.07-.17,4.62,4.62,0,0,1-2-.89,3,3,0,0,1-1-1.78,7.37,7.37,0,0,1,.18-3ZM613.94,27l-.28,1.23-8.88-2,.28-1.23Z"/><polygon points="699.93 48.55 690.15 72.2 688.83 71.66 683.06 44.22 674.21 65.61 672.88 65.06 682.66 41.41 683.99 41.96 689.78 69.37 698.61 48 699.93 48.55"/><path d="M705.08,68.18l-.29.6a10.39,10.39,0,0,0-1,3,8.68,8.68,0,0,0,.09,3,6.45,6.45,0,0,0,1.19,2.59A7.07,7.07,0,0,0,710.44,80a6.31,6.31,0,0,0,2.75-.68,8.29,8.29,0,0,0,2.37-1.78,10.38,10.38,0,0,0,1.8-2.63l.29-.6a9.94,9.94,0,0,0,.92-3,8.15,8.15,0,0,0-.06-3,6.58,6.58,0,0,0-1.18-2.61A6.82,6.82,0,0,0,712,63.12a6.79,6.79,0,0,0-2.78.69,8.39,8.39,0,0,0-2.36,1.78A10.38,10.38,0,0,0,705.08,68.18Zm-1.56,0,.29-.61A11.91,11.91,0,0,1,706,64.38a9.08,9.08,0,0,1,2.86-2,7.72,7.72,0,0,1,3.24-.64,8.19,8.19,0,0,1,3.39.87,8.06,8.06,0,0,1,2.78,2.12,7.76,7.76,0,0,1,1.52,3,8.6,8.6,0,0,1,.24,3.45,11.69,11.69,0,0,1-1.13,3.71l-.29.6a11.81,11.81,0,0,1-2.21,3.19,9.28,9.28,0,0,1-2.85,2,7.87,7.87,0,0,1-3.25.62,8.15,8.15,0,0,1-7.7-5.92,9.29,9.29,0,0,1-.23-3.47A11.44,11.44,0,0,1,703.52,68.17Z"/><path d="M728.1,79.85l-.18.32a15.21,15.21,0,0,0-1.3,3.1,8.52,8.52,0,0,0-.33,2.85,5.48,5.48,0,0,0,.77,2.43,5.32,5.32,0,0,0,2,1.83,7,7,0,0,0,3.21,1,5.82,5.82,0,0,0,2.76-.6A7.34,7.34,0,0,0,737.25,89l3-5.43a11.75,11.75,0,0,0,.38-2,6.94,6.94,0,0,0-.09-2.22,5.09,5.09,0,0,0-1-2.15,6.37,6.37,0,0,0-2.22-1.87,5,5,0,0,0-5.09-.08A8.25,8.25,0,0,0,730,77.11,14.77,14.77,0,0,0,728.1,79.85Zm-1.42-.36.18-.33a15.12,15.12,0,0,1,2.36-3.27,8.85,8.85,0,0,1,2.72-2,6.26,6.26,0,0,1,2.92-.6,6.73,6.73,0,0,1,3,.87A7.52,7.52,0,0,1,740.11,76a6.1,6.1,0,0,1,1.21,2.29,7.31,7.31,0,0,1,.26,2.61,10.71,10.71,0,0,1-.54,2.81l-3.17,5.74A8.42,8.42,0,0,1,736,91.26a6.86,6.86,0,0,1-2.28,1,6.52,6.52,0,0,1-2.58.12,8.09,8.09,0,0,1-2.81-1A6.28,6.28,0,0,1,725,86.54a9.37,9.37,0,0,1,.23-3.37A14.42,14.42,0,0,1,726.68,79.49Zm9.06,11.44L747,70.52l1.22.67-13,23.64L734,94.19Z"/><path d="M750.31,104.33a8.11,8.11,0,0,1-2.46-2.34,8.27,8.27,0,0,1-1.24-3.06,9.34,9.34,0,0,1,.06-3.49,10.7,10.7,0,0,1,1.45-3.54l.41-.66a11.32,11.32,0,0,1,2.58-2.95,9.64,9.64,0,0,1,3.09-1.64,7.66,7.66,0,0,1,3.2-.33,7.35,7.35,0,0,1,3,1.06,7.24,7.24,0,0,1,2.24,2.12,6.75,6.75,0,0,1,1.06,2.69,7.71,7.71,0,0,1-.13,3,10.54,10.54,0,0,1-1.35,3.14l-.62,1-12.32-7.65L750,90.6l11.14,6.92.12-.2a7.88,7.88,0,0,0,1.13-3.21,6,6,0,0,0-.42-3.15,5.3,5.3,0,0,0-2.2-2.49,5.78,5.78,0,0,0-2.65-.9,6.3,6.3,0,0,0-2.7.39,8.17,8.17,0,0,0-2.54,1.51A10.68,10.68,0,0,0,749.73,92l-.41.66a9.07,9.07,0,0,0-1.22,3,8.35,8.35,0,0,0-.12,3,6.89,6.89,0,0,0,1,2.66,6.29,6.29,0,0,0,2,2,7.69,7.69,0,0,0,2.88,1.1,6.21,6.21,0,0,0,3.19-.41l.42,1.06a7.85,7.85,0,0,1-2.16.59,6.88,6.88,0,0,1-2.41-.16A8.44,8.44,0,0,1,750.31,104.33Z"/><path d="M816,142.61l1.08.92a10.2,10.2,0,0,1-4,2.54,7.63,7.63,0,0,1-4.21.08,10.66,10.66,0,0,1-4.15-2.28,9.06,9.06,0,0,1-2.43-3.11,8.61,8.61,0,0,1-.78-3.69,10.83,10.83,0,0,1,.87-4,15.15,15.15,0,0,1,2.47-4l2.31-2.74a15,15,0,0,1,3.5-3.11,10.58,10.58,0,0,1,3.76-1.51,8.31,8.31,0,0,1,3.78.15,9.15,9.15,0,0,1,3.53,1.89,10.67,10.67,0,0,1,2.9,3.67,7.44,7.44,0,0,1,.62,4.16,10.12,10.12,0,0,1-1.81,4.38l-1.09-.92a9.09,9.09,0,0,0,1.5-3.66,6.11,6.11,0,0,0-.44-3.45,8.89,8.89,0,0,0-2.52-3.18,7.54,7.54,0,0,0-3-1.59,7,7,0,0,0-3.25-.07,9.44,9.44,0,0,0-3.29,1.36,13.54,13.54,0,0,0-3.07,2.77l-2.34,2.77a13.86,13.86,0,0,0-2.21,3.49,9.81,9.81,0,0,0-.83,3.46,7.3,7.3,0,0,0,.6,3.2,7.47,7.47,0,0,0,2.06,2.68,9.91,9.91,0,0,0,3.53,2,5.87,5.87,0,0,0,3.47-.09A9.18,9.18,0,0,0,816,142.61Z"/><path d="M835.39,162.84a5.22,5.22,0,0,0,1.13-1.75,4.09,4.09,0,0,0,.18-2.05,9.56,9.56,0,0,0-.76-2.57,27.38,27.38,0,0,0-1.75-3.31,35.53,35.53,0,0,1-1.75-3.24,12.3,12.3,0,0,1-.93-2.88,5.5,5.5,0,0,1,.11-2.53,5.6,5.6,0,0,1,1.41-2.33,5.54,5.54,0,0,1,2.28-1.49,6,6,0,0,1,2.67-.23,8.6,8.6,0,0,1,2.85.94,12.19,12.19,0,0,1,2.78,2,9.76,9.76,0,0,1,2.6,3.82,7.46,7.46,0,0,1,.34,4,7.12,7.12,0,0,1-1.91,3.6l-1-1a6,6,0,0,0,1.58-3,6.08,6.08,0,0,0-.28-3.33,8.15,8.15,0,0,0-2.19-3.23,9.82,9.82,0,0,0-3.3-2.17,5.8,5.8,0,0,0-3-.31,4.25,4.25,0,0,0-2.31,1.26,4.65,4.65,0,0,0-1,1.55,4.28,4.28,0,0,0-.2,1.95,10.31,10.31,0,0,0,.72,2.53,28.24,28.24,0,0,0,1.78,3.33,25.47,25.47,0,0,1,1.76,3.28,11.16,11.16,0,0,1,.94,2.95,6.07,6.07,0,0,1-.16,2.66,6,6,0,0,1-1.47,2.41,5.75,5.75,0,0,1-2.41,1.57,6.3,6.3,0,0,1-2.78.22,8.61,8.61,0,0,1-2.89-1,13,13,0,0,1-2.78-2,14.37,14.37,0,0,1-2.15-2.61,9.68,9.68,0,0,1-1.32-3.05,6.83,6.83,0,0,1,0-3.24,6.93,6.93,0,0,1,1.83-3.16l1,1a5.78,5.78,0,0,0-1.55,2.7,5.6,5.6,0,0,0,.07,2.73,8.65,8.65,0,0,0,1.17,2.55,12.71,12.71,0,0,0,1.81,2.15,9.9,9.9,0,0,0,3.19,2.13,5.94,5.94,0,0,0,3.13.43A4.34,4.34,0,0,0,835.39,162.84Z"/><path d="M854.23,182.39a5.11,5.11,0,0,0,1.22-1.68,4,4,0,0,0,.3-2,9.5,9.5,0,0,0-.61-2.61,28.76,28.76,0,0,0-1.56-3.41,32.2,32.2,0,0,1-1.56-3.33,12.81,12.81,0,0,1-.77-2.92,5.32,5.32,0,0,1,1.8-4.77,5.38,5.38,0,0,1,2.36-1.35,5.9,5.9,0,0,1,2.68-.08,8.56,8.56,0,0,1,2.79,1.09,12.66,12.66,0,0,1,2.67,2.18,9.88,9.88,0,0,1,2.37,4,7.45,7.45,0,0,1,.11,4,7.15,7.15,0,0,1-2.11,3.48l-1-1a6,6,0,0,0,1.75-2.87,6.08,6.08,0,0,0-.08-3.35,8.21,8.21,0,0,0-2-3.34,9.63,9.63,0,0,0-3.17-2.35,5.7,5.7,0,0,0-3-.48,4.16,4.16,0,0,0-2.37,1.11,4.73,4.73,0,0,0-1.08,1.5,4.14,4.14,0,0,0-.31,1.93,9.65,9.65,0,0,0,.57,2.57,27.89,27.89,0,0,0,1.59,3.43,26.81,26.81,0,0,1,1.57,3.37,11.4,11.4,0,0,1,.76,3,5.86,5.86,0,0,1-.3,2.65,6,6,0,0,1-1.61,2.32,5.74,5.74,0,0,1-2.49,1.43,6.24,6.24,0,0,1-2.79.06,8.71,8.71,0,0,1-2.84-1.15,12.68,12.68,0,0,1-2.65-2.18,14.11,14.11,0,0,1-2-2.73,9.73,9.73,0,0,1-1.15-3.12,6.63,6.63,0,0,1,2.2-6.28l1,1a5.42,5.42,0,0,0-1.79,5.34,8.67,8.67,0,0,0,1,2.6,12.4,12.4,0,0,0,1.68,2.26,10.29,10.29,0,0,0,3.06,2.31,6,6,0,0,0,3.1.61A4.42,4.42,0,0,0,854.23,182.39Z"/><polygon points="922.98 241.32 901.49 255.22 900.72 254.02 911.57 228.16 892.13 240.74 891.34 239.53 912.83 225.63 913.62 226.84 902.8 252.67 922.21 240.12 922.98 241.32"/><path d="M910.62,271.49a8,8,0,0,1-1-3.23A8.11,8.11,0,0,1,910,265a9.51,9.51,0,0,1,1.71-3,10.87,10.87,0,0,1,3-2.41l.67-.38a11.1,11.1,0,0,1,3.68-1.36,9.48,9.48,0,0,1,3.49,0,7.72,7.72,0,0,1,3,1.24,7.28,7.28,0,0,1,2.14,2.37,7.41,7.41,0,0,1,.95,2.93,6.78,6.78,0,0,1-.35,2.87,7.7,7.7,0,0,1-1.57,2.59,10.63,10.63,0,0,1-2.68,2.1l-1,.59-7.15-12.62,1.12-.63,6.47,11.4.19-.11a7.84,7.84,0,0,0,2.53-2.28,5.92,5.92,0,0,0,1.14-3,5.3,5.3,0,0,0-.74-3.24,5.89,5.89,0,0,0-1.9-2.06,6.43,6.43,0,0,0-2.56-.95,8,8,0,0,0-2.94.12,10.42,10.42,0,0,0-3.07,1.19l-.67.38a9.39,9.39,0,0,0-2.49,2,8.38,8.38,0,0,0-1.53,2.57,7.07,7.07,0,0,0-.42,2.8,6.41,6.41,0,0,0,.84,2.76,7.64,7.64,0,0,0,2,2.34,6.39,6.39,0,0,0,3,1.17l-.14,1.13a8,8,0,0,1-2.18-.52,7.27,7.27,0,0,1-2-1.29A8.57,8.57,0,0,1,910.62,271.49Z"/><polygon points="935.96 277.51 931.26 286.27 941.09 287.7 941.85 289.22 930.6 287.5 925.01 298.07 924.25 296.56 929.2 287.3 918.82 285.76 918.06 284.25 929.86 286.04 935.2 276 935.96 277.51"/><path d="M951.37,297.74,952,299l-17.74,8a5.7,5.7,0,0,0-2,1.29,2.12,2.12,0,0,0-.55,1.35A3.58,3.58,0,0,0,932,311a8,8,0,0,0,.44.83c.15.25.31.5.47.75l-1.07.62a5.18,5.18,0,0,1-.57-.85,7.83,7.83,0,0,1-.52-1,4.83,4.83,0,0,1-.46-2.09,3,3,0,0,1,.81-1.88,7.43,7.43,0,0,1,2.52-1.68Zm-2.29,7.17-1.15.52-3.75-8.3,1.16-.52Z"/><path d="M983,383.48l-1.26.33-3.83-14.38,1.26-.34Zm-11.82,1.32-1.27.34-3.38-12.69,1.28-.33Zm8.15-15.1-24.73,6.58-.37-1.37,24.74-6.58Zm-19.8,20.06-1.26.34-3.83-14.43,1.25-.33Z"/><polygon points="979 395.54 972.22 402.81 981.36 406.7 981.71 408.37 971.27 403.84 963.17 412.63 962.83 410.98 969.97 403.29 960.33 399.15 959.98 397.5 970.93 402.24 978.65 393.89 979 395.54"/><path d="M976.19,433.61l.37-.06a13.92,13.92,0,0,0,3.22-.88,8.1,8.1,0,0,0,2.45-1.49,5.41,5.41,0,0,0,1.44-2.12,5.31,5.31,0,0,0,.21-2.72,6.44,6.44,0,0,0-1-2.71,5.86,5.86,0,0,0-1.7-1.67,7.13,7.13,0,0,0-2.06-.83,11.45,11.45,0,0,0-2-.29l-6.16,1a7.22,7.22,0,0,0-2.36,1.51,5.94,5.94,0,0,0-1.5,2.41,7.11,7.11,0,0,0-.17,3.32,5,5,0,0,0,3.06,4.05,8.05,8.05,0,0,0,2.8.66A13.93,13.93,0,0,0,976.19,433.61Zm.59,1.35-.37.06a14.86,14.86,0,0,1-4,.13,9.21,9.21,0,0,1-3.24-.91,6.22,6.22,0,0,1-3.49-4.8,8.49,8.49,0,0,1,0-3,6.82,6.82,0,0,1,1-2.43,7.22,7.22,0,0,1,1.74-1.83,8.71,8.71,0,0,1,2.29-1.18l6.52-1a11.4,11.4,0,0,1,2.83.46,8.38,8.38,0,0,1,2.38,1.17,6.43,6.43,0,0,1,1.75,1.95,7.46,7.46,0,0,1,1,2.75,6.44,6.44,0,0,1-.2,3.11,6.14,6.14,0,0,1-1.55,2.56,8.8,8.8,0,0,1-2.78,1.87A14.89,14.89,0,0,1,976.78,435Zm3.48-14.19-22.4,3.56-.22-1.39,26-4.13.21,1.34Z"/><path d="M988.45,452.84l-1.27.05c0-.21,0-.42,0-.63a5.12,5.12,0,0,0,0-.67,5.62,5.62,0,0,0-.89-2.57,5.69,5.69,0,0,0-1.84-1.71,7.44,7.44,0,0,0-2.52-.86,11.16,11.16,0,0,0-3-.08l-.22-.66a14.68,14.68,0,0,1,3.63,0,9,9,0,0,1,3,.93,5.88,5.88,0,0,1,2.12,1.9,6.35,6.35,0,0,1,1,2.93,4.15,4.15,0,0,1,0,.78A3,3,0,0,1,988.45,452.84ZM984.29,446l-15.69,1.77-.15-1.38,18.9-2.13.15,1.36Z"/><path d="M970.4,471.21a8,8,0,0,1,.46-3.36,8.29,8.29,0,0,1,1.76-2.8,9.33,9.33,0,0,1,2.86-2,11,11,0,0,1,3.73-.89l.77-.05a11.42,11.42,0,0,1,3.9.37A9.51,9.51,0,0,1,987,464a7.77,7.77,0,0,1,2.14,2.41,7.59,7.59,0,0,1,.48,6.12,6.94,6.94,0,0,1-1.56,2.43,7.7,7.7,0,0,1-2.53,1.65,10.83,10.83,0,0,1-3.33.74l-1.18.08-1-14.47,1.28-.09.89,13.08h.22a8,8,0,0,0,3.27-1,6,6,0,0,0,2.32-2.19,5.34,5.34,0,0,0,.73-3.24,5.85,5.85,0,0,0-.82-2.67,6.22,6.22,0,0,0-1.89-2,8.21,8.21,0,0,0-2.71-1.17,10.55,10.55,0,0,0-3.27-.26l-.77.06a9,9,0,0,0-3.12.74,8,8,0,0,0-2.5,1.65,7.15,7.15,0,0,0-1.59,2.34,6.29,6.29,0,0,0-.44,2.85,7.77,7.77,0,0,0,.79,3,6.25,6.25,0,0,0,2.2,2.35l-.62,1a7.58,7.58,0,0,1-1.74-1.42,6.75,6.75,0,0,1-1.28-2A8.43,8.43,0,0,1,970.4,471.21Z"/><path d="M976.54,499.45a3.47,3.47,0,0,0,1.66-.48,4.36,4.36,0,0,0,1.52-1.66,11.7,11.7,0,0,0,1.15-3.45,25.83,25.83,0,0,1,.73-2.84,7.9,7.9,0,0,1,1-2.06,4,4,0,0,1,1.44-1.27,4.58,4.58,0,0,1,2-.44,4.24,4.24,0,0,1,1.93.41,4.49,4.49,0,0,1,1.58,1.25,6.45,6.45,0,0,1,1.11,2,8.59,8.59,0,0,1,.43,2.7,8.39,8.39,0,0,1-.66,3.7,5.39,5.39,0,0,1-1.91,2.41,5,5,0,0,1-2.85.87l0-1.4a3.69,3.69,0,0,0,2.06-.67,4.51,4.51,0,0,0,1.54-1.89,6.62,6.62,0,0,0,.56-3,6.85,6.85,0,0,0-.59-2.91,3.87,3.87,0,0,0-1.42-1.62,3.2,3.2,0,0,0-1.7-.49,4.14,4.14,0,0,0-1.28.22,2.62,2.62,0,0,0-1,.81,6.4,6.4,0,0,0-.93,1.68,18,18,0,0,0-.77,2.85,16,16,0,0,1-1.19,3.75,5.23,5.23,0,0,1-1.74,2.15,4.52,4.52,0,0,1-2.53.73,4.59,4.59,0,0,1-2.09-.44,4.74,4.74,0,0,1-1.64-1.34,6.48,6.48,0,0,1-1.09-2.13,9.75,9.75,0,0,1-.41-2.8,9.49,9.49,0,0,1,.67-4,5.82,5.82,0,0,1,1.94-2.49,4.58,4.58,0,0,1,2.64-.87l0,1.4a3.76,3.76,0,0,0-2.44,1.06,5.07,5.07,0,0,0-1.23,2.24,9.49,9.49,0,0,0-.32,2.62,7.24,7.24,0,0,0,.59,3,4.51,4.51,0,0,0,1.46,1.81A3.13,3.13,0,0,0,976.54,499.45Z"/><path d="M976.08,523.5a3.35,3.35,0,0,0,1.68-.4,4.19,4.19,0,0,0,1.6-1.58,11.32,11.32,0,0,0,1.33-3.38,25.44,25.44,0,0,1,.87-2.8,7.91,7.91,0,0,1,1.09-2,4.29,4.29,0,0,1,1.5-1.2,4.59,4.59,0,0,1,2-.33,4.26,4.26,0,0,1,1.9.5,4.51,4.51,0,0,1,1.52,1.34,6.56,6.56,0,0,1,1,2.09,8.91,8.91,0,0,1,.29,2.72,8.66,8.66,0,0,1-.84,3.66,5.49,5.49,0,0,1-2,2.31,5.12,5.12,0,0,1-2.9.73l0-1.41a3.69,3.69,0,0,0,2.1-.56,4.5,4.5,0,0,0,1.62-1.81,6.5,6.5,0,0,0,.72-3,6.67,6.67,0,0,0-.45-2.93,3.89,3.89,0,0,0-1.33-1.7,3.19,3.19,0,0,0-1.67-.57,4.48,4.48,0,0,0-1.29.15,2.58,2.58,0,0,0-1.1.76,6.4,6.4,0,0,0-1,1.64,17.3,17.3,0,0,0-.92,2.8,15.64,15.64,0,0,1-1.38,3.68,5.2,5.2,0,0,1-1.84,2.06,5,5,0,0,1-4.63.06,4.73,4.73,0,0,1-1.57-1.43,6.24,6.24,0,0,1-1-2.18,10.08,10.08,0,0,1-.28-2.82,9.67,9.67,0,0,1,.88-3.94,6,6,0,0,1,2.07-2.4,4.68,4.68,0,0,1,2.68-.73l0,1.4a3.78,3.78,0,0,0-2.5.94,5.21,5.21,0,0,0-1.34,2.17,9.93,9.93,0,0,0-.45,2.6,7.1,7.1,0,0,0,.44,3,4.56,4.56,0,0,0,1.36,1.88A3.14,3.14,0,0,0,976.08,523.5Z"/><polygon points="987.68 600.39 962.51 595.79 962.76 594.39 988.38 582.99 965.61 578.82 965.87 577.41 991.04 582.01 990.78 583.43 965.2 594.83 987.94 598.99 987.68 600.39"/><path d="M958,613.9a7.91,7.91,0,0,1,4-5.2,9.29,9.29,0,0,1,3.32-1,11.17,11.17,0,0,1,3.82.28l.76.19a11,11,0,0,1,3.6,1.53,9.61,9.61,0,0,1,2.53,2.42,7.72,7.72,0,0,1,1.3,2.94,7,7,0,0,1-.07,3.19,7.2,7.2,0,0,1-1.31,2.79,6.83,6.83,0,0,1-2.22,1.85,7.67,7.67,0,0,1-2.91.81,10.63,10.63,0,0,1-3.4-.31l-1.15-.28L969.7,609l1.24.31L967.84,622l.22.05a7.82,7.82,0,0,0,3.4.07,6,6,0,0,0,2.87-1.38A5.28,5.28,0,0,0,976,617.9a6,6,0,0,0,0-2.79,6.39,6.39,0,0,0-1.21-2.45,8.13,8.13,0,0,0-2.23-1.94,10.83,10.83,0,0,0-3.05-1.23l-.75-.18a9.22,9.22,0,0,0-3.2-.24,8.22,8.22,0,0,0-2.87.82,7,7,0,0,0-2.22,1.76,6.15,6.15,0,0,0-1.28,2.58,7.72,7.72,0,0,0-.16,3.08,6.31,6.31,0,0,0,1.39,2.9l-.88.73a7.63,7.63,0,0,1-1.22-1.87,7,7,0,0,1-.61-2.34A8.63,8.63,0,0,1,958,613.9Z"/><path d="M955.33,642.68a3.48,3.48,0,0,0,1.73,0,4.24,4.24,0,0,0,2-1.13,11,11,0,0,0,2.14-2.94,28.22,28.22,0,0,1,1.55-2.49,7.85,7.85,0,0,1,1.56-1.66,4.14,4.14,0,0,1,1.76-.78,4.66,4.66,0,0,1,2.05.19,4.28,4.28,0,0,1,1.71,1,4.45,4.45,0,0,1,1.13,1.67,6.17,6.17,0,0,1,.44,2.28,8.73,8.73,0,0,1-.4,2.71,8.6,8.6,0,0,1-1.74,3.33,5.65,5.65,0,0,1-2.55,1.72,5.05,5.05,0,0,1-3,0l.4-1.35a3.73,3.73,0,0,0,2.17,0,4.54,4.54,0,0,0,2-1.34,7.83,7.83,0,0,0,1.75-5.64,3.84,3.84,0,0,0-.86-2,3.09,3.09,0,0,0-1.47-1,4.08,4.08,0,0,0-1.28-.18,2.54,2.54,0,0,0-1.26.45,6.42,6.42,0,0,0-1.38,1.33,18.08,18.08,0,0,0-1.6,2.47,15.91,15.91,0,0,1-2.26,3.22,5.36,5.36,0,0,1-2.31,1.53A4.51,4.51,0,0,1,955,644a4.5,4.5,0,0,1-3-2.83,6.4,6.4,0,0,1-.4-2.35A10.38,10.38,0,0,1,952,636a9.75,9.75,0,0,1,1.84-3.6,5.88,5.88,0,0,1,2.61-1.79,4.71,4.71,0,0,1,2.78,0l-.4,1.34a3.83,3.83,0,0,0-2.65.28,5.1,5.1,0,0,0-1.85,1.76,10,10,0,0,0-1.1,2.4,7.18,7.18,0,0,0-.33,3,4.49,4.49,0,0,0,.85,2.16A3.13,3.13,0,0,0,955.33,642.68Z"/><path d="M969.36,661.93l-.46,1.32-18.39-6.36a5.79,5.79,0,0,0-2.32-.41,2.15,2.15,0,0,0-1.32.61,3.51,3.51,0,0,0-.69,1.19,7.91,7.91,0,0,0-.26.9c-.06.28-.12.57-.17.87l-1.2-.29a5,5,0,0,1,.16-1,10.36,10.36,0,0,1,.29-1.06,4.74,4.74,0,0,1,1.1-1.83,3,3,0,0,1,1.88-.82,7.53,7.53,0,0,1,3,.51Zm-6.58,3.63-1.2-.41,3-8.6,1.2.41Z"/><path d="M939.07,735.69,916.28,724l.65-1.26,22.79,11.65Zm7.78-15.22-22.78-11.65.64-1.27L947.5,719.2Zm-17.79,9-1.17-.6,7.54-14.76,1.18.6Z"/><path d="M923.63,762.55l-1.12-.66,10-16.89,1.12.67Zm4.64-7.83-22-13,.71-1.21,22,13Z"/><path d="M904.73,791l-.75,1.1L882.86,777.6l.81-1.17,9.81,6.72Zm12.89-18.83-.75,1.1-11.35-7.66-9.82-6.73.81-1.17Zm-.24.36-.85,1.24-25.15-5,13.71,21.66-.84,1.24-14.86-23.6.62-.92Z"/><path d="M895.11,803.78,875,788l.89-1.13L896,802.64ZM868,799l-1-.81,8.36-10.68,1,.8Z"/><path d="M827.66,857.19l-6.18-6.5a6.07,6.07,0,0,1,.18-2,10.32,10.32,0,0,1,1.19-3,15.29,15.29,0,0,1,2.79-3.41,9.89,9.89,0,0,1,3.5-2.21,9,9,0,0,1,3.89-.5,10.93,10.93,0,0,1,4,1.19,14.2,14.2,0,0,1,3.75,2.89l2.59,2.72a14,14,0,0,1,2.63,3.76,10.5,10.5,0,0,1,1,3.91,8.69,8.69,0,0,1-.65,3.75,9.74,9.74,0,0,1-2.34,3.32,10.28,10.28,0,0,1-4.1,2.55,7.53,7.53,0,0,1-4,.17,8.65,8.65,0,0,1-3.56-1.8l1-1a8.25,8.25,0,0,0,2.87,1.4,6,6,0,0,0,3.29-.06,8.7,8.7,0,0,0,3.59-2.22,8.19,8.19,0,0,0,2-2.9,7.55,7.55,0,0,0,.51-3.26,9.19,9.19,0,0,0-.94-3.38,12.94,12.94,0,0,0-2.32-3.25l-2.61-2.75a13.68,13.68,0,0,0-3.27-2.57A9.85,9.85,0,0,0,833,841a8.08,8.08,0,0,0-3.42.37,8.49,8.49,0,0,0-3.05,1.91,13.57,13.57,0,0,0-2.29,2.74,9.76,9.76,0,0,0-1.13,2.41,5.06,5.06,0,0,0-.24,1.71l4.91,5.16,5.39-5.14.91.95Z"/><path d="M803.39,870.72A5.26,5.26,0,0,0,805,872a4.07,4.07,0,0,0,2,.41,9.44,9.44,0,0,0,2.63-.48,27.73,27.73,0,0,0,3.49-1.37,34.89,34.89,0,0,1,3.41-1.38,12,12,0,0,1,3-.61A5.51,5.51,0,0,1,822,869a5.58,5.58,0,0,1,2.15,1.65,5.44,5.44,0,0,1,1.23,2.44,6,6,0,0,1-.06,2.67,8.57,8.57,0,0,1-1.25,2.73,12.16,12.16,0,0,1-2.31,2.55,9.86,9.86,0,0,1-4.09,2.16,7.37,7.37,0,0,1-4-.11,7.08,7.08,0,0,1-3.36-2.29l1.09-.92a5.9,5.9,0,0,0,2.77,1.89,6,6,0,0,0,3.34.1A8.07,8.07,0,0,0,821,880a9.46,9.46,0,0,0,2.52-3,5.74,5.74,0,0,0,.64-3,4.25,4.25,0,0,0-1-2.42,4.67,4.67,0,0,0-1.44-1.16,4.29,4.29,0,0,0-1.91-.41,9.47,9.47,0,0,0-2.59.44,26.8,26.8,0,0,0-3.52,1.4,27.56,27.56,0,0,1-3.44,1.39,11.92,11.92,0,0,1-3,.6,5.68,5.68,0,0,1-4.86-2.17,5.76,5.76,0,0,1-1.3-2.57,6.29,6.29,0,0,1,.09-2.79,8.69,8.69,0,0,1,1.3-2.77,12.44,12.44,0,0,1,2.32-2.53,14.13,14.13,0,0,1,2.83-1.86,9.88,9.88,0,0,1,3.17-1,6.73,6.73,0,0,1,3.23.37,6.92,6.92,0,0,1,2.93,2.17l-1.09.91a5.76,5.76,0,0,0-2.51-1.83,5.6,5.6,0,0,0-2.72-.23,8.59,8.59,0,0,0-2.66.88,12.88,12.88,0,0,0-2.34,1.56A10.08,10.08,0,0,0,803.1,865a5.94,5.94,0,0,0-.77,3.06A4.38,4.38,0,0,0,803.39,870.72Z"/><path d="M784.12,888.83l-.79-1.06,10.5-7.88.79,1.06Zm-7.06-5.67,22,14.15.79.77-.92.69-23.07-14.69Zm21.59,14.44-7.42-25.07,1.21-.91,7.67,26.25-1,.7Z"/><path d="M767.53,902.6l6.32-4.21.72,1.09-6.32,4.2a8.61,8.61,0,0,0-2.89,2.89,5.11,5.11,0,0,0-.66,3.08,6.56,6.56,0,0,0,1.09,2.94,6.87,6.87,0,0,0,2.34,2.22,5.15,5.15,0,0,0,3.13.65,8.16,8.16,0,0,0,3.82-1.5l5.71-3.8-13.45-20.23,1.19-.79,14.16,21.32L775.8,915a10.08,10.08,0,0,1-4.38,1.77,6.41,6.41,0,0,1-3.82-.65,8.67,8.67,0,0,1-4.37-6.57,6.33,6.33,0,0,1,.93-3.68A10.65,10.65,0,0,1,767.53,902.6Z"/><path d="M711.32,936.54l.45,1-1.95.93a12.54,12.54,0,0,1-3.43,1.12,7.13,7.13,0,0,1-2.93-.09,5.36,5.36,0,0,1-2.34-1.21,6.54,6.54,0,0,1-1.66-2.22,7.64,7.64,0,0,1-.78-3,6.15,6.15,0,0,1,.47-2.73,7,7,0,0,1,1.62-2.33,9.5,9.5,0,0,1,2.58-1.74,10,10,0,0,1,2.85-.87,8.57,8.57,0,0,1,3,.1,6.83,6.83,0,0,1,2.72,1.26,7.21,7.21,0,0,1,2.06,2.66l-1.27.61a5.84,5.84,0,0,0-2.15-2.49,6.24,6.24,0,0,0-3.14-.9,7.41,7.41,0,0,0-3.51.79,7.61,7.61,0,0,0-2.79,2.08,4.94,4.94,0,0,0-1.1,2.73,6.44,6.44,0,0,0,.69,3.18,5.31,5.31,0,0,0,2.19,2.52,5,5,0,0,0,3,.57,10.87,10.87,0,0,0,3.57-1.05Zm.56,1.19-1.83.87a7.93,7.93,0,0,0-2.94,2.2,5.25,5.25,0,0,0-1.16,2.68,5,5,0,0,0,.47,2.72,6.45,6.45,0,0,0,1.8,2.32,4.53,4.53,0,0,0,2.61,1,6.53,6.53,0,0,0,3.36-.75,7,7,0,0,0,2.54-2,5.65,5.65,0,0,0,1.18-2.78,5.5,5.5,0,0,0-.58-3.13l1.26-.6a6.72,6.72,0,0,1-.75,7.21,8.47,8.47,0,0,1-3.1,2.44,8.33,8.33,0,0,1-3.86.89,5.81,5.81,0,0,1-3.32-1.07,7.33,7.33,0,0,1-2.44-3,5.33,5.33,0,0,1-.53-2.4,6,6,0,0,1,.52-2.5,7.54,7.54,0,0,1,1.61-2.32,9.64,9.64,0,0,1,2.73-1.86l2-.93Z"/><path d="M688.05,934.65a1.17,1.17,0,0,1,0,.88,1.14,1.14,0,0,1-.64.65,1.16,1.16,0,0,1-.93,0,1.18,1.18,0,0,1-.64-1.52,1.2,1.2,0,0,1,.66-.65,1.15,1.15,0,0,1,1.54.61Z"/><path d="M665.88,950.65l6.3,16.73-1.33.5-6.3-16.73a9.11,9.11,0,0,1-.64-4.47,6.77,6.77,0,0,1,1.55-3.52,8,8,0,0,1,3.27-2.2,9.17,9.17,0,0,1,4-.65,5.88,5.88,0,0,1,3.31,1.37,8.35,8.35,0,0,1,2.34,3.55l-1.34.5a7.4,7.4,0,0,0-1.82-2.9,4.71,4.71,0,0,0-2.65-1.2,7.48,7.48,0,0,0-3.38.55,6.09,6.09,0,0,0-2.58,1.77,5.68,5.68,0,0,0-1.28,2.91A7.77,7.77,0,0,0,665.88,950.65Z"/><path d="M638.32,958.22a5,5,0,0,0,1,1.82A4.06,4.06,0,0,0,641,961.2a9.53,9.53,0,0,0,2.61.58,29.54,29.54,0,0,0,3.75.07,34.09,34.09,0,0,1,3.68,0,12,12,0,0,1,3,.58,5.49,5.49,0,0,1,2.17,1.32,5.62,5.62,0,0,1,1.35,2.36,5.55,5.55,0,0,1,.2,2.72,6,6,0,0,1-1.09,2.45,8.62,8.62,0,0,1-2.2,2,11.9,11.9,0,0,1-3.11,1.46,9.81,9.81,0,0,1-4.61.42,7.41,7.41,0,0,1-3.69-1.65,7.17,7.17,0,0,1-2.22-3.42l1.36-.42a5.85,5.85,0,0,0,1.83,2.81,6,6,0,0,0,3,1.38,8,8,0,0,0,3.88-.36,9.62,9.62,0,0,0,3.5-1.83,5.85,5.85,0,0,0,1.74-2.51,4.26,4.26,0,0,0,0-2.62,4.89,4.89,0,0,0-.88-1.62,4.38,4.38,0,0,0-1.61-1.12,10.2,10.2,0,0,0-2.56-.59,28.35,28.35,0,0,0-3.78-.06,26.61,26.61,0,0,1-3.72-.05,11.3,11.3,0,0,1-3-.61,5.94,5.94,0,0,1-2.26-1.43,6,6,0,0,1-1.4-2.45,5.76,5.76,0,0,1-.2-2.86,6.28,6.28,0,0,1,1.15-2.54,8.56,8.56,0,0,1,2.27-2.06,12.79,12.79,0,0,1,3.12-1.45,14.55,14.55,0,0,1,3.32-.62,9.85,9.85,0,0,1,3.31.32,6.84,6.84,0,0,1,2.84,1.58,7,7,0,0,1,1.87,3.13l-1.36.43a5.8,5.8,0,0,0-1.61-2.66,5.58,5.58,0,0,0-2.43-1.27,8.94,8.94,0,0,0-2.79-.2,12.27,12.27,0,0,0-2.76.54,10.24,10.24,0,0,0-3.41,1.75,6,6,0,0,0-1.89,2.53A4.3,4.3,0,0,0,638.32,958.22Z"/><path d="M584.51,970.9a5.15,5.15,0,0,0,.77,1.93,4.07,4.07,0,0,0,1.56,1.35,9.68,9.68,0,0,0,2.53.87,27.75,27.75,0,0,0,3.71.51,32.26,32.26,0,0,1,3.65.47,12.5,12.5,0,0,1,2.88.91,5.82,5.82,0,0,1,2.95,6.8,6,6,0,0,1-1.37,2.3,8.75,8.75,0,0,1-2.42,1.77,12.62,12.62,0,0,1-3.26,1.09,9.9,9.9,0,0,1-4.62-.12,7.43,7.43,0,0,1-3.48-2.08,7.11,7.11,0,0,1-1.81-3.64l1.4-.27a5.95,5.95,0,0,0,4.36,4.73,8.31,8.31,0,0,0,3.9.1A9.72,9.72,0,0,0,599,986.2a5.7,5.7,0,0,0,2-2.29,4.18,4.18,0,0,0,.33-2.6,4.6,4.6,0,0,0-.69-1.71,4.23,4.23,0,0,0-1.46-1.3,9.72,9.72,0,0,0-2.48-.88,27.91,27.91,0,0,0-3.75-.5,27.16,27.16,0,0,1-3.69-.48,10.84,10.84,0,0,1-2.93-1,5.65,5.65,0,0,1-3.18-4.28,5.64,5.64,0,0,1,.13-2.87,6.15,6.15,0,0,1,1.44-2.38,8.64,8.64,0,0,1,2.48-1.79,12.94,12.94,0,0,1,3.27-1.07,14.48,14.48,0,0,1,3.37-.23,9.78,9.78,0,0,1,3.25.7,6.63,6.63,0,0,1,4.13,5.23l-1.4.26a5.76,5.76,0,0,0-1.29-2.83,5.61,5.61,0,0,0-2.26-1.53,8.45,8.45,0,0,0-2.75-.53,13,13,0,0,0-2.81.21,10.12,10.12,0,0,0-3.58,1.35,6,6,0,0,0-2.18,2.29A4.41,4.41,0,0,0,584.51,970.9Z"/><path d="M558.84,977.25l-.17-1.31,13-1.72.18,1.3Zm-3.38-8.4L567.69,992l.32,1-1.15.15-12.92-24.1ZM567.22,992l5.8-25.49,1.5-.2L568.35,993l-1.16.15Z"/><path d="M530.61,977.2a5,5,0,0,0,.53,2,4.2,4.2,0,0,0,1.4,1.52,9.94,9.94,0,0,0,2.42,1.16,29.68,29.68,0,0,0,3.63.92,35.89,35.89,0,0,1,3.57.88,12.6,12.6,0,0,1,2.76,1.24,5.6,5.6,0,0,1,1.8,1.79,6.09,6.09,0,0,1,.35,5.29,5.77,5.77,0,0,1-1.62,2.13,8.52,8.52,0,0,1-2.61,1.49,12.07,12.07,0,0,1-3.36.71,9.78,9.78,0,0,1-4.58-.65,7.39,7.39,0,0,1-3.22-2.45,7.13,7.13,0,0,1-1.38-3.83l1.42-.11a5.9,5.9,0,0,0,1.14,3.16,6,6,0,0,0,2.66,2,8.19,8.19,0,0,0,3.86.54,9.52,9.52,0,0,0,3.82-1,5.72,5.72,0,0,0,2.26-2,4.22,4.22,0,0,0,.62-2.55,4.66,4.66,0,0,0-.48-1.78,4.25,4.25,0,0,0-1.31-1.45,9.6,9.6,0,0,0-2.36-1.16,27.34,27.34,0,0,0-3.67-.93,27.63,27.63,0,0,1-3.61-.89,11.23,11.23,0,0,1-2.81-1.29,6,6,0,0,1-1.87-1.9,6.16,6.16,0,0,1-.8-2.71,5.78,5.78,0,0,1,.46-2.84,6.32,6.32,0,0,1,1.7-2.21,8.53,8.53,0,0,1,2.68-1.48,12.68,12.68,0,0,1,3.36-.7,14.28,14.28,0,0,1,3.38.16,9.71,9.71,0,0,1,3.15,1.07,6.69,6.69,0,0,1,2.4,2.18,7.06,7.06,0,0,1,1.11,3.48l-1.42.1a5.81,5.81,0,0,0-1-3,5.74,5.74,0,0,0-2.08-1.78,8.67,8.67,0,0,0-2.67-.84,12.72,12.72,0,0,0-2.81-.11,10.32,10.32,0,0,0-3.72.93,6.14,6.14,0,0,0-2.42,2A4.39,4.39,0,0,0,530.61,977.2Z"/><path d="M503.47,978a5,5,0,0,0,.42,2,4.1,4.1,0,0,0,1.31,1.59,9.64,9.64,0,0,0,2.35,1.3,28.8,28.8,0,0,0,3.57,1.13,35.33,35.33,0,0,1,3.52,1.08,12.68,12.68,0,0,1,2.68,1.4,5.62,5.62,0,0,1,1.7,1.88,5.76,5.76,0,0,1,.63,2.65,5.57,5.57,0,0,1-.59,2.66,6,6,0,0,1-1.74,2,8.62,8.62,0,0,1-2.68,1.33,12.18,12.18,0,0,1-3.4.51,9.88,9.88,0,0,1-4.54-.9,7.4,7.4,0,0,1-3.07-2.64,7.11,7.11,0,0,1-1.16-3.9l1.43,0a5.93,5.93,0,0,0,3.48,5.4,8.1,8.1,0,0,0,3.83.76,9.41,9.41,0,0,0,3.87-.77,5.76,5.76,0,0,0,2.38-1.9,4.19,4.19,0,0,0,.76-2.51,4.73,4.73,0,0,0-.38-1.81,4.32,4.32,0,0,0-1.22-1.52,10,10,0,0,0-2.29-1.3,28,28,0,0,0-3.61-1.13,26.22,26.22,0,0,1-3.55-1.1,11.39,11.39,0,0,1-2.74-1.44,6.06,6.06,0,0,1-1.75-2,6,6,0,0,1-.65-2.75,5.78,5.78,0,0,1,.62-2.81,6.41,6.41,0,0,1,1.82-2.11,8.85,8.85,0,0,1,2.76-1.33,12.68,12.68,0,0,1,3.4-.5,14.41,14.41,0,0,1,3.37.35,10,10,0,0,1,3.08,1.24,6.68,6.68,0,0,1,3.18,5.86l-1.43,0a5.75,5.75,0,0,0-.79-3,5.68,5.68,0,0,0-2-1.9,8.88,8.88,0,0,0-2.62-1,13.48,13.48,0,0,0-2.8-.27,10.28,10.28,0,0,0-3.76.72,6.11,6.11,0,0,0-2.54,1.89A4.4,4.4,0,0,0,503.47,978Z"/><rect class="cls-1" width="1004.88" height="1004.88"/></g></g></g></svg>